<?xml version="1.0" encoding="UTF-8"?>
<svg id="_レイヤー_1" data-name="レイヤー 1" xmlns="http://www.w3.org/2000/svg" viewBox="0 0 86.84 53.91">
  <defs>
    <style>
      @font-face {
      font-family: 'Noto Sans JP';
      font-style: normal;
      font-weight: 500;
      src: url('../font/NotoSansJP-Medium.ttf') format('truetype');
      }

      .cls-1 {
      fill: #231815;
      font-family: 'Noto Sans JP', sans-serif;
      font-size: 10px;
      font-weight: 500;
      }

      .cls-2 {
      fill: #6fc4ef;
      stroke-width: 0px;
      }
    </style>
  </defs>
  <path class="cls-2"
    d="M25.85,11.01c-4.96,5.78-11.34,6.39-11.12,7.76.22,1.35,6.8,3.09,12.55.65,6.93-2.94,6.85-9.5,11.8-11.13,5.73-1.89,9.24,8.07,18.2,9.47,6.16.96,11.94-2.25,16.09-5.39,6.74-6.35,10.82-9.05,12.24-8.11,2.83,1.88,1.03,14.54-7.7,21.55-1.75,1.4-6.68,5.37-12.98,4.91-12.5-.9-16.88-18.24-24.16-17.05-6.1.99-4.49,13.4-14.22,18.23-5.94,2.95-13.95,2.01-19.19-1.89C-.96,23.83-2.68,9.94,4.55,3.61c7.63-6.68,22.84-2.86,24.16,1.6.54,1.84-1.23,3.91-2.86,5.8Z" />
  <text class="cls-1" transform="translate(7.16 50.52)">
    <tspan x="0" y="0">mizuame.works</tspan>
  </text>
</svg>