<?xml version="1.0" encoding="UTF-8" standalone="no"?>
<!-- Created with Inkscape (http://www.inkscape.org/) -->

<svg
   width="200"
   height="40"
   viewBox="0 0 200 40"
   version="1.1"
   id="svg1"
   inkscape:version="1.4.4 (dcaf3e7d9e, 2026-05-05)"
   sodipodi:docname="myxogastria0808_banner_outline.svg"
   inkscape:export-filename="myxogastria0808_banner.png"
   inkscape:export-xdpi="600"
   inkscape:export-ydpi="600"
   xmlns:inkscape="http://www.inkscape.org/namespaces/inkscape"
   xmlns:sodipodi="http://sodipodi.sourceforge.net/DTD/sodipodi-0.dtd"
   xmlns="http://www.w3.org/2000/svg"
   xmlns:svg="http://www.w3.org/2000/svg">
  <sodipodi:namedview
     id="namedview1"
     pagecolor="#ffffff"
     bordercolor="#000000"
     borderopacity="0.25"
     inkscape:showpageshadow="2"
     inkscape:pageopacity="0.0"
     inkscape:pagecheckerboard="0"
     inkscape:deskcolor="#d1d1d1"
     inkscape:document-units="px"
     inkscape:zoom="5.3962204"
     inkscape:cx="83.669673"
     inkscape:cy="49.479076"
     inkscape:window-width="1896"
     inkscape:window-height="1026"
     inkscape:window-x="0"
     inkscape:window-y="0"
     inkscape:window-maximized="1"
     inkscape:current-layer="layer1" />
  <defs
     id="defs1">
    <linearGradient
       id="swatch2"
       inkscape:swatch="solid">
      <stop
         style="stop-color:#000000;stop-opacity:1;"
         offset="0"
         id="stop2" />
    </linearGradient>
  </defs>
  <g
     inkscape:label="Layer 1"
     inkscape:groupmode="layer"
     id="layer1">
    <rect
       style="fill:#ffffff;stroke:none;stroke-width:1.90252;stroke-dasharray:none;paint-order:stroke markers fill"
       id="rect1"
       width="200"
       height="40"
       x="0"
       y="0" />
    <path
       d="m 95.00037,24.423512 h 1.281173 l 1.581022,4.156997 q 0.136295,0.367997 0.245331,0.708734 0.122665,0.340738 0.218072,0.667846 0.09541,0.313478 0.149924,0.613327 h 0.05452 q 0.08178,-0.340737 0.258961,-0.885917 0.177183,-0.55881 0.367996,-1.117619 l 1.485613,-4.143368 h 1.29481 l -3.148419,8.313995 q -0.258961,0.681475 -0.613328,1.185766 -0.340737,0.517921 -0.845029,0.790511 -0.490662,0.28622 -1.199396,0.28622 -0.327108,0 -0.572439,-0.04089 -0.245331,-0.02726 -0.422514,-0.06815 v -0.954065 q 0.149924,0.02726 0.354367,0.05452 0.218072,0.02726 0.449773,0.02726 0.422515,0 0.722364,-0.163554 0.313478,-0.149925 0.53155,-0.449774 0.218072,-0.286219 0.367997,-0.681475 l 0.381626,-0.967694 z m 14.20194,0 v 7.305412 h -0.98132 l -0.17719,-0.967695 h -0.0545 q -0.2317,0.381626 -0.5997,0.626957 -0.368,0.245331 -0.80414,0.354367 -0.43615,0.122666 -0.91318,0.122666 -0.87229,0 -1.47198,-0.27259 -0.58607,-0.28622 -0.88592,-0.872288 -0.29985,-0.586069 -0.29985,-1.512875 v -4.783954 h 1.21302 v 4.702177 q 0,0.872288 0.39526,1.308432 0.39526,0.436144 1.22666,0.436144 0.81777,0 1.28117,-0.299849 0.47703,-0.313478 0.66784,-0.899547 0.20445,-0.599698 0.20445,-1.444727 v -3.80263 z m 3.50278,2.357903 q 0,0.218072 -0.0272,0.572439 -0.0136,0.354367 -0.0273,0.613328 h 0.0545 q 0.0818,-0.109036 0.24534,-0.313479 0.16355,-0.204442 0.3271,-0.408885 0.17719,-0.218072 0.29985,-0.354367 l 2.33065,-2.466939 h 1.40384 l -2.95761,3.121155 3.16205,4.184257 h -1.44473 l -2.53509,-3.407375 -0.8314,0.722363 v 2.685012 h -1.18576 v -10.35842 h 1.18576 z m 7.29179,-2.357903 v 7.305412 h -1.19939 v -7.305412 z m -0.58607,-2.73953 q 0.27259,0 0.47704,0.190813 0.21807,0.177184 0.21807,0.572439 0,0.381626 -0.21807,0.572439 -0.20445,0.190813 -0.47704,0.190813 -0.29984,0 -0.50429,-0.190813 -0.20444,-0.190813 -0.20444,-0.572439 0,-0.395255 0.20444,-0.572439 0.20445,-0.190813 0.50429,-0.190813 z m 9.25443,6.378606 q 0,0.913177 -0.24533,1.621911 -0.23171,0.695104 -0.68148,1.185766 -0.43614,0.490662 -1.07673,0.749623 -0.62696,0.245331 -1.40384,0.245331 -0.72236,0 -1.33569,-0.245331 -0.61333,-0.258961 -1.0631,-0.749623 -0.44977,-0.490662 -0.70873,-1.185766 -0.24534,-0.708734 -0.24534,-1.621911 0,-1.213025 0.40889,-2.044425 0.40888,-0.845029 1.17214,-1.281173 0.76325,-0.449773 1.81272,-0.449773 0.99495,0 1.74458,0.449773 0.76325,0.436144 1.18576,1.281173 0.43615,0.8314 0.43615,2.044425 z m -5.51995,0 q 0,0.858659 0.21807,1.499245 0.2317,0.626957 0.70874,0.967695 0.47703,0.340737 1.21302,0.340737 0.73599,0 1.21303,-0.340737 0.47703,-0.340738 0.6951,-0.967695 0.2317,-0.640586 0.2317,-1.499245 0,-0.872288 -0.2317,-1.485615 -0.2317,-0.613328 -0.70873,-0.940436 -0.46341,-0.340737 -1.21303,-0.340737 -1.11762,0 -1.62191,0.735993 -0.50429,0.735993 -0.50429,2.030795 z m 12.17114,1.64917 q 0,0.708734 -0.35437,1.185766 -0.35437,0.477033 -1.00858,0.722364 -0.65422,0.245331 -1.55377,0.245331 -0.76325,0 -1.32206,-0.122666 -0.54518,-0.122665 -0.96769,-0.340737 v -1.09036 q 0.43614,0.218072 1.04947,0.408885 0.62695,0.177183 1.26754,0.177183 0.91318,0 1.32206,-0.286219 0.40889,-0.299849 0.40889,-0.790511 0,-0.27259 -0.14993,-0.490662 -0.14992,-0.218072 -0.54518,-0.436144 -0.38162,-0.218072 -1.10399,-0.490662 -0.70873,-0.27259 -1.21302,-0.54518 -0.50429,-0.27259 -0.77688,-0.654216 -0.27259,-0.381626 -0.27259,-0.981324 0,-0.926806 0.74962,-1.431098 0.76325,-0.504291 1.98991,-0.504291 0.66784,0 1.24028,0.136295 0.58607,0.122665 1.09036,0.354367 l -0.40888,0.954065 q -0.46341,-0.190813 -0.9677,-0.327108 -0.50429,-0.136295 -1.03584,-0.136295 -0.73599,0 -1.13125,0.245331 -0.38163,0.231701 -0.38163,0.640586 0,0.299849 0.17719,0.517921 0.17718,0.204443 0.58607,0.408885 0.42251,0.190813 1.11762,0.463403 0.6951,0.258961 1.18576,0.531551 0.49066,0.27259 0.74962,0.667845 0.25897,0.381626 0.25897,0.967695 z m 4.53862,-5.410912 q 1.33569,0 1.97628,0.586069 0.64059,0.586068 0.64059,1.867241 v 4.974768 h -0.87229 l -0.2317,-1.035842 h -0.0545 q -0.31348,0.395255 -0.65422,0.667845 -0.32711,0.258961 -0.76325,0.381626 -0.42251,0.122666 -1.03584,0.122666 -0.65422,0 -1.18577,-0.231702 -0.51792,-0.231701 -0.81777,-0.708734 -0.29985,-0.490662 -0.29985,-1.226655 0,-1.09036 0.85866,-1.676428 0.85866,-0.599698 2.64412,-0.654216 l 1.24029,-0.04089 v -0.436144 q 0,-0.913176 -0.39526,-1.267543 -0.39525,-0.354367 -1.11762,-0.354367 -0.57243,0 -1.09036,0.177183 -0.51792,0.163554 -0.96769,0.381626 l -0.368,-0.899547 q 0.47704,-0.25896 1.13125,-0.436144 0.65422,-0.190813 1.36295,-0.190813 z m 0.35437,3.898037 q -1.36295,0.05452 -1.8945,0.436144 -0.51792,0.381626 -0.51792,1.076731 0,0.613327 0.36799,0.899547 0.38163,0.286219 0.9677,0.286219 0.9268,0 1.54013,-0.504291 0.61333,-0.517921 0.61333,-1.581022 v -0.654216 z m 7.11461,3.666336 q -1.36295,0 -2.18072,-0.940436 -0.81777,-0.954065 -0.81777,-2.834936 0,-1.880871 0.81777,-2.834936 0.8314,-0.967694 2.19435,-0.967694 0.57244,0 0.99495,0.149924 0.42252,0.136295 0.73599,0.381626 0.31348,0.245331 0.53156,0.54518 h 0.0818 q -0.0136,-0.177183 -0.0545,-0.517921 -0.0273,-0.354367 -0.0273,-0.558809 v -2.916713 h 1.19939 v 10.35842 h -0.96769 L 149.65467,30.7476 h -0.0545 q -0.21808,0.313478 -0.53156,0.572439 -0.31347,0.245331 -0.74962,0.395255 -0.42251,0.149925 -0.99495,0.149925 z m 0.19081,-0.994954 q 1.15851,0 1.62191,-0.626957 0.47703,-0.640586 0.47703,-1.921759 v -0.218072 q 0,-1.36295 -0.44977,-2.085314 -0.44977,-0.735993 -1.6628,-0.735993 -0.96769,0 -1.45835,0.776882 -0.47704,0.763252 -0.47704,2.058054 0,1.308432 0.47704,2.030796 0.49066,0.722363 1.47198,0.722363 z m 8.36851,-6.569419 q 1.33569,0 1.97628,0.586069 0.64058,0.586068 0.64058,1.867241 v 4.974768 h -0.87228 l -0.23171,-1.035842 h -0.0545 q -0.31348,0.395255 -0.65422,0.667845 -0.32711,0.258961 -0.76325,0.381626 -0.42252,0.122666 -1.03584,0.122666 -0.65422,0 -1.18577,-0.231702 -0.51792,-0.231701 -0.81777,-0.708734 -0.29985,-0.490662 -0.29985,-1.226655 0,-1.09036 0.85866,-1.676428 0.85866,-0.599698 2.64412,-0.654216 l 1.24029,-0.04089 v -0.436144 q 0,-0.913176 -0.39526,-1.267543 -0.39525,-0.354367 -1.11762,-0.354367 -0.57244,0 -1.09036,0.177183 -0.51792,0.163554 -0.96769,0.381626 l -0.368,-0.899547 q 0.47703,-0.25896 1.13125,-0.436144 0.65422,-0.190813 1.36295,-0.190813 z m 0.35437,3.898037 q -1.36295,0.05452 -1.8945,0.436144 -0.51792,0.381626 -0.51792,1.076731 0,0.613327 0.36799,0.899547 0.38163,0.286219 0.9677,0.286219 0.9268,0 1.54013,-0.504291 0.61333,-0.517921 0.61333,-1.581022 v -0.654216 z m 4.34782,2.794048 q 0,-0.504292 0.24533,-0.708734 0.24533,-0.204443 0.58607,-0.204443 0.35437,0 0.5997,0.204443 0.25896,0.204442 0.25896,0.708734 0,0.490662 -0.25896,0.708734 -0.24533,0.218072 -0.5997,0.218072 -0.34074,0 -0.58607,-0.218072 -0.24533,-0.218072 -0.24533,-0.708734 z m 8.54569,-3.393746 q -0.0818,-0.286219 -0.16355,-0.558809 -0.0818,-0.28622 -0.14992,-0.531551 -0.0545,-0.25896 -0.10904,-0.477032 -0.0545,-0.218072 -0.0818,-0.367997 h -0.0545 q -0.0273,0.149925 -0.0818,0.367997 -0.0409,0.218072 -0.10904,0.477032 -0.0545,0.258961 -0.13629,0.54518 -0.0682,0.27259 -0.16356,0.55881 l -1.30843,4.102479 h -1.36295 l -2.00354,-7.305412 h 1.24029 l 1.00858,3.898037 q 0.10904,0.395256 0.20444,0.804141 0.0954,0.395255 0.16356,0.763252 0.0818,0.354367 0.10903,0.613327 h 0.0545 q 0.0409,-0.163554 0.0954,-0.408885 0.0545,-0.245331 0.10903,-0.517921 0.0682,-0.27259 0.1363,-0.54518 0.0818,-0.27259 0.14992,-0.490662 l 1.29481,-4.116109 h 1.30843 l 1.25391,4.116109 q 0.0954,0.313479 0.19082,0.667846 0.10903,0.354367 0.19081,0.695104 0.0818,0.327108 0.10904,0.586069 h 0.0545 q 0.0273,-0.231702 0.0954,-0.572439 0.0818,-0.354367 0.17718,-0.763252 0.10904,-0.422515 0.21808,-0.8314 l 1.02221,-3.898037 h 1.22665 l -2.03079,7.305412 h -1.40384 z m 12.34832,0.463403 q 0,0.913177 -0.24533,1.621911 -0.2317,0.695104 -0.68148,1.185766 -0.43614,0.490662 -1.07673,0.749623 -0.62695,0.245331 -1.40383,0.245331 -0.72237,0 -1.3357,-0.245331 -0.61332,-0.258961 -1.0631,-0.749623 -0.44977,-0.490662 -0.70873,-1.185766 -0.24533,-0.708734 -0.24533,-1.621911 0,-1.213025 0.40888,-2.044425 0.40889,-0.845029 1.17214,-1.281173 0.76325,-0.449773 1.81272,-0.449773 0.99496,0 1.74458,0.449773 0.76325,0.436144 1.18577,1.281173 0.43614,0.8314 0.43614,2.044425 z m -5.51995,0 q 0,0.858659 0.21808,1.499245 0.2317,0.626957 0.70873,0.967695 0.47703,0.340737 1.21302,0.340737 0.736,0 1.21303,-0.340737 0.47703,-0.340738 0.6951,-0.967695 0.23171,-0.640586 0.23171,-1.499245 0,-0.872288 -0.23171,-1.485615 -0.2317,-0.613328 -0.70873,-0.940436 -0.4634,-0.340737 -1.21302,-0.340737 -1.11762,0 -1.62192,0.735993 -0.50429,0.735993 -0.50429,2.030795 z m 10.82182,-3.775371 q 0.20444,0 0.43614,0.02726 0.24534,0.01363 0.42252,0.05452 l -0.14993,1.103989 q -0.17718,-0.04089 -0.39525,-0.06815 -0.20444,-0.02726 -0.39526,-0.02726 -0.42251,0 -0.80414,0.177183 -0.38162,0.177184 -0.68147,0.504292 -0.29985,0.313478 -0.47703,0.763252 -0.16356,0.449773 -0.16356,1.008583 v 3.898037 h -1.19939 v -7.305412 h 0.98132 l 0.13629,1.335691 h 0.0545 q 0.2317,-0.408885 0.55881,-0.735993 0.32711,-0.340738 0.74962,-0.531551 0.42252,-0.204442 0.92681,-0.204442 z m 3.40737,2.494198 q 0,0.218072 -0.0273,0.572439 -0.0136,0.354367 -0.0273,0.613328 h 0.0545 q 0.0818,-0.109036 0.24534,-0.313479 0.16355,-0.204442 0.3271,-0.408885 0.17719,-0.218072 0.29985,-0.354367 l 2.33065,-2.466939 h 1.40384 l -2.95761,3.121155 3.16205,4.184257 h -1.44473 l -2.53509,-3.407375 -0.8314,0.722363 v 2.685012 h -1.18576 v -10.35842 h 1.18576 z"
       id="text1"
       style="font-size:13.6295px;line-height:0.1;font-family:'Noto Sans';-inkscape-font-specification:'Noto Sans';fill:#0288a9;stroke-width:0.643915;paint-order:stroke markers fill"
       aria-label="yukiosada.work" />
    <path
       id="rect2"
       style="fill:#0288a9;stroke-width:0.34896;paint-order:stroke markers fill"
       d="M 0,0 H 20 L 0,20 Z"
       sodipodi:nodetypes="cccc" />
    <path
       d="m 11.390728,5.6410831 q -0.143308,0.1433074 -0.3017,0.21119 -0.150848,0.075427 -0.33187,0.06034 -0.181019,-0.03017 -0.437465,-0.15085 L 8.0418596,4.6756439 Q 7.8608397,4.5851339 7.6270223,4.4719965 7.3856624,4.3513165 7.1292175,4.2306366 6.8803152,4.1024142 6.6615828,3.9892767 6.4503929,3.8685968 6.299543,3.7780868 l -0.03017,0.03017 Q 6.4881054,4.1325842 6.7294652,4.6002189 6.9783677,5.0603112 7.1820151,5.4600635 L 8.6075465,8.2734142 7.8985519,8.9824089 5.3190185,3.446217 4.6175664,3.1369747 Q 4.1650165,2.9257848 3.7728067,2.9861247 3.3881395,3.0389217 3.0260996,3.400962 2.8903347,3.5367269 2.7998245,3.6574066 2.7168565,3.7705437 2.6489747,3.8685966 L 2.121,3.3406219 q 0.045255,-0.09051 0.1131373,-0.1734775 0.067883,-0.098052 0.15085,-0.1961049 0.082967,-0.098053 0.1810197,-0.1961051 0.3922098,-0.3922098 0.7995045,-0.5430597 0.4148373,-0.1583924 0.8900146,-0.09051 0.4827197,0.06034 1.0710345,0.3318699 l 5.2420354,2.3758871 q 0.150849,0.06034 0.24136,0.09051 0.08297,0.02263 0.143307,0.00754 0.06788,-0.022627 0.12068,-0.075425 0.06034,-0.06034 0.09806,-0.12822 0.03772,-0.06788 0.06788,-0.1131374 l 0.490262,0.4902619 q -0.03017,0.075425 -0.07542,0.1659348 -0.04526,0.09051 -0.113135,0.1734796 -0.06034,0.090508 -0.150853,0.1810175 z"
       id="text2"
       style="font-size:10.6667px;line-height:0.1;font-family:'Noto Sans';-inkscape-font-specification:'Noto Sans';fill:#ffffff;stroke-width:0.377953;paint-order:stroke markers fill"
       aria-label="λ" />
  </g>
</svg>
